<svg width="64" height="64" xmlns="http://www.w3.org/2000/svg" xmlns:xlink="http://www.w3.org/1999/xlink">
  <defs/>
  <g>
    <path stroke="none" fill="#58F7C0" d="M38 3.9 L38 2 Q38 0 40 0 L56 0 Q58 0 58 2 L58 3.9 Q57.95 2 56 2 L40 2 Q38.05 2 38 3.9 M58 8 L62.15 8 63 8.15 Q63.95 8.55 64 9.9 L64 11.9 Q63.95 10.55 63 10.15 L62.15 10 1.9 10 1 10.2 Q0.4 10.4 0.2 11 L0 11.75 0 9.9 Q0.05 8.55 1 8.2 L1.9 8 6 8 26 8 38 8 58 8 M6 3.9 L6 2 Q6 0 8 0 L24 0 Q26 0 26 2 L26 3.9 Q25.95 2 24 2 L8 2 Q6.05 2 6 3.9 M48 31.5 L48 32 48 32.4 48 32.5 48 33 Q48 35.1 46.5 36.55 45.05 38 43 38 40.9 38 39.45 36.55 38 35.1 38 33 L38.05 32.6 38 32 38.05 31.6 Q38.2 33.3 39.45 34.55 40.9 36 43 36 45.05 36 46.5 34.55 47.85 33.25 48 31.5 M23.05 41.5 L23.3 42.05 Q23.95 43.15 24.9 44.1 27.9 47 32 47 36.2 47 39.15 44.1 L40.7 42.05 40.95 41.5 40.95 41.55 40.95 42.5 40.95 42.55 Q41.15 43.35 40.7 44.05 L39.15 46.1 Q36.2 49 32 49 27.9 49 24.9 46.1 23.95 45.15 23.3 44.05 22.85 43.35 23.05 42.55 L23.05 42.5 23.05 41.55 23.05 41.5 M26 31.5 L26 32 26 32.4 26 32.5 26 33 Q26 35.1 24.5 36.55 23.05 38 21 38 18.9 38 17.45 36.55 16 35.1 16 33 L16.05 32.6 16 32 16.05 31.6 Q16.2 33.3 17.45 34.55 18.9 36 21 36 23.05 36 24.5 34.55 25.85 33.25 26 31.5"/>
    <path stroke="none" fill="#30DEA0" d="M26 31.5 L26 31.4 26 31 26 30.5 Q25.8 28.7 24.5 27.45 23.05 26 21 26 18.9 26 17.45 27.45 16.2 28.7 16.05 30.5 L16 31 16.05 31.6 16 32 16.05 32.6 16 33 Q16 35.1 17.45 36.55 18.9 38 21 38 23.05 38 24.5 36.55 26 35.1 26 33 L26 32.5 26 32.4 26 32 26 31.5 M58 3.9 L58 8 38 8 38 3.9 Q38.05 2 40 2 L56 2 Q57.95 2 58 3.9 M6 8 L6 3.9 Q6.05 2 8 2 L24 2 Q25.95 2 26 3.9 L26 8 6 8 M48 31.5 L48 31.4 48 31 48 30.5 Q47.8 28.7 46.5 27.45 45.05 26 43 26 40.9 26 39.45 27.45 38.2 28.7 38.05 30.5 L38 31 38.05 31.6 38 32 38.05 32.6 38 33 Q38 35.1 39.45 36.55 40.9 38 43 38 45.05 38 46.5 36.55 48 35.1 48 33 L48 32.5 48 32.4 48 32 48 31.5 M1 10.2 L1.9 10 62.15 10 63 10.15 63 62 1 62 1 10.2 M40.95 41.5 L40.95 40.55 40.95 40.5 Q40.75 39.7 40.05 39.3 L38.55 39.05 Q37.75 39.25 37.3 39.95 L36.3 41.25 Q34.5 43 32 43 29.5 43 27.7 41.25 L27.75 41.25 26.7 39.95 Q26.25 39.25 25.5 39.05 24.65 38.85 23.95 39.3 23.25 39.7 23.05 40.5 L23.05 40.55 23.05 41.5 23.05 41.55 23.05 42.5 23.05 42.55 Q22.85 43.35 23.3 44.05 23.95 45.15 24.9 46.1 27.9 49 32 49 36.2 49 39.15 46.1 L40.7 44.05 Q41.15 43.35 40.95 42.55 L40.95 42.5 40.95 41.55 40.95 41.5"/>
    <path stroke="none" fill="#219168" d="M40.95 41.5 L40.7 42.05 39.15 44.1 Q36.2 47 32 47 27.9 47 24.9 44.1 23.95 43.15 23.3 42.05 L23.05 41.5 23.05 40.55 23.05 40.5 Q23.25 39.7 23.95 39.3 24.65 38.85 25.5 39.05 26.25 39.25 26.7 39.95 L27.75 41.25 27.7 41.25 Q29.5 43 32 43 34.5 43 36.3 41.25 L37.3 39.95 Q37.75 39.25 38.55 39.05 L40.05 39.3 Q40.75 39.7 40.95 40.5 L40.95 40.55 40.95 41.5 M38.05 31.6 L38 31 38.05 30.5 Q38.2 28.7 39.45 27.45 40.9 26 43 26 45.05 26 46.5 27.45 47.8 28.7 48 30.5 L48 31 48 31.4 48 31.5 Q47.85 33.25 46.5 34.55 45.05 36 43 36 40.9 36 39.45 34.55 38.2 33.3 38.05 31.6 M16.05 31.6 L16 31 16.05 30.5 Q16.2 28.7 17.45 27.45 18.9 26 21 26 23.05 26 24.5 27.45 25.8 28.7 26 30.5 L26 31 26 31.4 26 31.5 Q25.85 33.25 24.5 34.55 23.05 36 21 36 18.9 36 17.45 34.55 16.2 33.3 16.05 31.6"/>
    <path stroke="none" fill="#20D091" d="M64 11.9 L64 62 63 62 63 10.15 Q63.95 10.55 64 11.9 M0 62 L0 11.75 0.2 11 Q0.4 10.4 1 10.2 L1 62 0 62"/>
    <path stroke="none" fill="#26B480" d="M0 62 L1 62 63 62 64 62 64 64 0 64 0 62"/>
  </g>
</svg>