<svg width="64" height="64" xmlns="http://www.w3.org/2000/svg" xmlns:xlink="http://www.w3.org/1999/xlink">
  <defs/>
  <g>
    <path stroke="none" fill="#FFE788" d="M38 3.9 L38 2 Q38 0 40 0 L56 0 Q58 0 58 2 L58 3.9 Q57.95 2 56 2 L40 2 Q38.05 2 38 3.9 M58 8 L62.15 8 63 8.15 Q63.95 8.55 64 9.9 L64 11.9 Q63.95 10.55 63 10.15 L62.15 10 1.9 10 1 10.2 Q0.4 10.4 0.2 11 L0 11.75 0 9.9 Q0.05 8.55 1 8.2 L1.9 8 6 8 26 8 38 8 58 8 M6 3.9 L6 2 Q6 0 8 0 L24 0 Q26 0 26 2 L26 3.9 Q25.95 2 24 2 L8 2 Q6.05 2 6 3.9"/>
    <path stroke="none" fill="#FFCC2F" d="M6 3.9 Q6.05 2 8 2 L24 2 Q25.95 2 26 3.9 L26 8 6 8 6 3.9 M58 3.9 L58 8 38 8 38 3.9 Q38.05 2 40 2 L56 2 Q57.95 2 58 3.9 M55 19 Q55 19.85 54.4 20.4 53.85 21 53 21 52.2 21 51.6 20.45 L51.6 20.4 Q51 19.85 51 19 51 18.2 51.6 17.6 52.2 17 53 17 53.85 17 54.4 17.6 L54.45 17.6 Q55 18.2 55 19 M37 36.15 L37 24 Q37 21.95 35.5 20.45 34.05 19 32 19 29.95 19 28.45 20.45 27 21.95 27 24 L27 36.15 27 38 Q27 40.05 28.45 41.5 29.95 43 32 43 34.05 43 35.5 41.55 L35.55 41.5 Q37 40.05 37 38 L37 36.15 M57 19 Q57 17.35 55.85 16.2 L55.8 16.15 Q54.65 15 53 15 51.35 15 50.15 16.15 49 17.35 49 19 49 20.65 50.15 21.8 L50.2 21.85 Q51.35 23 53 23 54.65 23 55.8 21.8 57 20.65 57 19 M1 10.2 L1.9 10 62.15 10 63 10.15 63 62 1 62 1 10.2 M57 53 Q57 51.35 55.85 50.2 L55.8 50.15 Q54.65 49 53 49 51.35 49 50.15 50.15 49 51.35 49 53 49 54.65 50.15 55.8 L50.2 55.85 Q51.35 57 53 57 54.65 57 55.8 55.8 57 54.65 57 53 M55 53 Q55 53.85 54.4 54.4 53.85 55 53 55 52.2 55 51.6 54.45 L51.6 54.4 Q51 53.85 51 53 51 52.2 51.6 51.6 52.2 51 53 51 53.85 51 54.4 51.6 L54.45 51.6 Q55 52.2 55 53 M36.9 50.05 L36.9 50 37 49 Q37 46.95 35.5 45.45 34.05 44 32 44 29.95 44 28.45 45.45 27 46.95 27 49 L27.1 50 27.1 50.05 27 51 Q27 53.05 28.45 54.5 29.95 56 32 56 34.05 56 35.5 54.55 L35.55 54.5 Q37 53.05 37 51 L36.9 50.05 M13 19 Q13 19.85 12.4 20.4 11.85 21 11 21 10.2 21 9.6 20.45 L9.6 20.4 Q9 19.85 9 19 9 18.2 9.6 17.6 10.2 17 11 17 11.85 17 12.4 17.6 L12.45 17.6 Q13 18.2 13 19 M15 19 Q15 17.35 13.85 16.2 L13.8 16.15 Q12.65 15 11 15 9.35 15 8.15 16.15 7 17.35 7 19 7 20.65 8.15 21.8 L8.2 21.85 Q9.35 23 11 23 12.65 23 13.8 21.8 15 20.65 15 19 M13 53 Q13 53.85 12.4 54.4 11.85 55 11 55 10.2 55 9.6 54.45 L9.6 54.4 Q9 53.85 9 53 9 52.2 9.6 51.6 10.2 51 11 51 11.85 51 12.4 51.6 L12.45 51.6 Q13 52.2 13 53 M15 53 Q15 51.35 13.85 50.2 L13.8 50.15 Q12.65 49 11 49 9.35 49 8.15 50.15 7 51.35 7 53 7 54.65 8.15 55.8 L8.2 55.85 Q9.35 57 11 57 12.65 57 13.8 55.8 15 54.65 15 53"/>
    <path stroke="none" fill="#FDA827" d="M15 53 Q15 54.65 13.8 55.8 12.65 57 11 57 9.35 57 8.2 55.85 L8.15 55.8 Q7 54.65 7 53 7 51.35 8.15 50.15 9.35 49 11 49 12.65 49 13.8 50.15 L13.85 50.2 Q15 51.35 15 53 M64 62 L64 64 0 64 0 62 1 62 63 62 64 62 M55 19 Q55 18.2 54.45 17.6 L54.4 17.6 Q53.85 17 53 17 52.2 17 51.6 17.6 51 18.2 51 19 51 19.85 51.6 20.4 L51.6 20.45 Q52.2 21 53 21 53.85 21 54.4 20.4 55 19.85 55 19 M57 19 Q57 20.65 55.8 21.8 54.65 23 53 23 51.35 23 50.2 21.85 L50.15 21.8 Q49 20.65 49 19 49 17.35 50.15 16.15 51.35 15 53 15 54.65 15 55.8 16.15 L55.85 16.2 Q57 17.35 57 19 M57 53 Q57 54.65 55.8 55.8 54.65 57 53 57 51.35 57 50.2 55.85 L50.15 55.8 Q49 54.65 49 53 49 51.35 50.15 50.15 51.35 49 53 49 54.65 49 55.8 50.15 L55.85 50.2 Q57 51.35 57 53 M55 53 Q55 52.2 54.45 51.6 L54.4 51.6 Q53.85 51 53 51 52.2 51 51.6 51.6 51 52.2 51 53 51 53.85 51.6 54.4 L51.6 54.45 Q52.2 55 53 55 53.85 55 54.4 54.4 55 53.85 55 53 M13 19 Q13 18.2 12.45 17.6 L12.4 17.6 Q11.85 17 11 17 10.2 17 9.6 17.6 9 18.2 9 19 9 19.85 9.6 20.4 L9.6 20.45 Q10.2 21 11 21 11.85 21 12.4 20.4 13 19.85 13 19 M15 19 Q15 20.65 13.8 21.8 12.65 23 11 23 9.35 23 8.2 21.85 L8.15 21.8 Q7 20.65 7 19 7 17.35 8.15 16.15 9.35 15 11 15 12.65 15 13.8 16.15 L13.85 16.2 Q15 17.35 15 19 M13 53 Q13 52.2 12.45 51.6 L12.4 51.6 Q11.85 51 11 51 10.2 51 9.6 51.6 9 52.2 9 53 9 53.85 9.6 54.4 L9.6 54.45 Q10.2 55 11 55 11.85 55 12.4 54.4 13 53.85 13 53"/>
    <path stroke="none" fill="#FFFFFF" d="M27 36.15 L27 24 Q27 21.95 28.45 20.45 29.95 19 32 19 34.05 19 35.5 20.45 37 21.95 37 24 L37 36.15 Q36.95 38.1 35.55 39.5 L35.5 39.55 Q34.05 41 32 41 29.95 41 28.45 39.5 27.05 38.1 27 36.15 M27.1 50.05 L27.1 50 27 49 Q27 46.95 28.45 45.45 29.95 44 32 44 34.05 44 35.5 45.45 37 46.95 37 49 L36.9 50 36.9 50.05 Q36.65 51.4 35.55 52.5 L35.5 52.55 Q34.05 54 32 54 29.95 54 28.45 52.5 27.35 51.4 27.1 50.05"/>
    <path stroke="none" fill="#FFB733" d="M27.1 50.05 Q27.35 51.4 28.45 52.5 29.95 54 32 54 34.05 54 35.5 52.55 L35.55 52.5 Q36.65 51.4 36.9 50.05 L37 51 Q37 53.05 35.55 54.5 L35.5 54.55 Q34.05 56 32 56 29.95 56 28.45 54.5 27 53.05 27 51 L27.1 50.05 M64 11.9 L64 62 63 62 63 10.15 Q63.95 10.55 64 11.9 M0 62 L0 11.75 0.2 11 Q0.4 10.4 1 10.2 L1 62 0 62 M37 36.15 L37 38 Q37 40.05 35.55 41.5 L35.5 41.55 Q34.05 43 32 43 29.95 43 28.45 41.5 27 40.05 27 38 L27 36.15 Q27.05 38.1 28.45 39.5 29.95 41 32 41 34.05 41 35.5 39.55 L35.55 39.5 Q36.95 38.1 37 36.15"/>
  </g>
</svg>