<?xml version="1.0" encoding="iso-8859-1"?>
<!-- Uploaded to: SVG Repo, www.svgrepo.com, Generator: SVG Repo Mixer Tools -->
<svg height="800px" width="800px" version="1.1" id="Layer_1" xmlns="http://www.w3.org/2000/svg" xmlns:xlink="http://www.w3.org/1999/xlink" 
	 viewBox="0 0 512 512" xml:space="preserve">
<path style="fill:#EA9B22;" d="M322.115,354.706c42.516-23.37,71.32-68.571,71.32-120.515c0-75.898-61.527-137.435-137.435-137.435
	s-137.435,61.538-137.435,137.435c0,51.943,28.804,97.145,71.32,120.515"/>
<path style="fill:#D88A20;" d="M118.565,234.191c0,51.943,28.804,97.145,71.32,120.515h33.52
	c-20.961-23.37-35.161-68.571-35.161-120.515c0-75.898,30.333-137.435,67.756-137.435
	C180.092,96.755,118.565,158.294,118.565,234.191z"/>
<path style="fill:#F4B04E;" d="M393.435,234.191c0,51.943-28.804,97.145-71.32,120.515h-33.52c0,0,64.041-39.131,64.041-120.515
	c0-96.337-59.213-137.435-96.636-137.435C331.908,96.755,393.435,158.294,393.435,234.191z"/>
<path style="fill:#E4EAEA;" d="M311.915,352.794h-111.83c-15.585,0-28.218,12.634-28.218,28.219l0,0
	c0,15.585,12.634,28.219,28.218,28.219h111.83c15.585,0,28.218-12.634,28.218-28.219l0,0
	C340.133,365.428,327.5,352.794,311.915,352.794z"/>
<path style="fill:#B6BCBB;" d="M212.964,381.012L212.964,381.012c0-15.585,12.634-28.219,28.219-28.219h-41.098
	c-15.585,0-28.219,12.634-28.219,28.219l0,0c0,15.585,12.634,28.218,28.219,28.218h41.098
	C225.598,409.231,212.964,396.597,212.964,381.012z"/>
<path style="fill:#E4EAEA;" d="M311.915,409.231h-111.83c-15.585,0-28.218,12.634-28.218,28.219l0,0
	c0,15.585,12.634,28.219,28.218,28.219h111.83c15.585,0,28.218-12.634,28.218-28.219l0,0
	C340.133,421.865,327.5,409.231,311.915,409.231z"/>
<g>
	<path style="fill:#B6BCBB;" d="M212.964,437.449L212.964,437.449c0-15.585,12.634-28.219,28.219-28.219h-41.098
		c-15.585,0-28.219,12.634-28.219,28.219l0,0c0,15.585,12.634,28.218,28.219,28.218h41.098
		C225.598,465.668,212.964,453.034,212.964,437.449z"/>
	<path style="fill:#B6BCBB;" d="M218.376,465.668c0,20.78,16.845,37.624,37.624,37.624s37.624-16.845,37.624-37.624"/>
</g>
<path style="fill:#7A8280;" d="M245.033,465.668h-26.658c0,20.78,16.845,37.624,37.624,37.624c4.695,0,9.185-0.867,13.329-2.438
	C255.13,495.473,245.033,481.753,245.033,465.668z"/>
<polygon style="fill:#F23488;" points="303.726,146.944 262.506,223.723 313.317,223.723 225.405,326.152 244.763,248.725 
	210.081,248.725 221.46,146.944 "/>
<path d="M215.992,195.859c-4.778-0.531-9.086,2.907-9.621,7.686l-4.942,44.212c-0.275,2.462,0.511,4.925,2.163,6.772
	c1.652,1.847,4.012,2.902,6.49,2.902h23.529l-16.651,66.608c-0.98,3.917,0.863,7.993,4.449,9.846
	c1.269,0.656,2.638,0.973,3.995,0.973c2.478,0,4.912-1.058,6.611-3.037l87.912-102.429c2.215-2.581,2.725-6.216,1.305-9.307
	c-1.421-3.091-4.51-5.071-7.912-5.071h-36.253l34.334-63.954c1.449-2.698,1.373-5.961-0.199-8.588
	c-1.572-2.629-4.409-4.238-7.473-4.238H221.46c-4.435,0-8.161,3.333-8.654,7.74l-3.356,30.021c-0.534,4.779,2.907,9.087,7.686,9.621
	c4.786,0.533,9.087-2.907,9.621-7.686l2.492-22.281h59.92l-34.334,63.954c-1.449,2.698-1.373,5.961,0.199,8.588
	c1.572,2.629,4.409,4.238,7.473,4.238h31.862l-51.583,60.101l10.423-41.694c0.651-2.602,0.066-5.357-1.584-7.471
	c-1.65-2.113-4.182-3.348-6.864-3.348h-24.945l3.861-34.537C224.212,200.702,220.771,196.394,215.992,195.859z"/>
<path d="M402.143,234.191c0-80.584-65.559-146.143-146.143-146.143c-41.109,0-80.548,17.463-108.205,47.91
	c-3.233,3.56-2.969,9.066,0.591,12.3c3.561,3.233,9.067,2.969,12.301-0.591c24.362-26.821,59.104-42.205,95.313-42.205
	c70.981,0,128.728,57.747,128.728,128.728c0,45.749-24.282,87.96-63.61,111.055c-2.943-0.758-6.027-1.161-9.203-1.161h-111.83
	c-3.176,0-6.26,0.403-9.203,1.161c-39.328-23.097-63.61-65.306-63.61-111.055c0-23.746,6.516-46.945,18.842-67.089
	c2.51-4.102,1.219-9.462-2.883-11.972c-4.102-2.511-9.462-1.219-11.972,2.883c-14.002,22.881-21.402,49.223-21.402,76.179
	c0,48.67,24.208,93.807,63.99,120.869c-6.603,6.675-10.687,15.844-10.687,25.952c0,11.308,5.114,21.44,13.146,28.218
	c-8.032,6.779-13.146,16.91-13.146,28.218c0,20.362,16.565,36.927,36.927,36.927h10.414C214.587,495.773,233.429,512,256,512
	s41.413-16.227,45.501-37.624h10.414c20.362,0,36.927-16.565,36.927-36.927c0-11.308-5.114-21.44-13.146-28.218
	c8.032-6.779,13.146-16.911,13.146-28.219c0-10.108-4.086-19.277-10.687-25.952C377.935,327.999,402.143,282.862,402.143,234.191z
	 M256,494.585c-12.911,0-23.871-8.507-27.575-20.21h55.151C279.871,486.078,268.911,494.585,256,494.585z M298.209,400.523
	c-4.809,0-8.707,3.899-8.707,8.707s3.899,8.707,8.707,8.707h13.706c10.759,0,19.512,8.753,19.512,19.511
	c0,10.758-8.753,19.512-19.512,19.512h-111.83c-10.759,0-19.512-8.753-19.512-19.512c0-10.759,8.753-19.511,19.512-19.511h70.355
	c4.809,0,8.707-3.899,8.707-8.707s-3.899-8.707-8.707-8.707h-70.355c-10.759,0-19.512-8.753-19.512-19.512
	s8.753-19.511,19.512-19.511h111.83c10.759,0,19.512,8.753,19.512,19.512s-8.753,19.511-19.512,19.511H298.209z"/>
<path d="M481.483,225.483h-51.112c-4.809,0-8.707,3.899-8.707,8.707s3.899,8.707,8.707,8.707h51.112
	c4.809,0,8.707-3.899,8.707-8.707S486.292,225.483,481.483,225.483z"/>
<path d="M90.336,234.191c0-4.809-3.899-8.707-8.707-8.707H30.517c-4.809,0-8.707,3.899-8.707,8.707s3.899,8.707,8.707,8.707h51.112
	C86.437,242.898,90.336,239,90.336,234.191z"/>
<path d="M409.053,170.794c1.389,3.353,4.631,5.378,8.048,5.378c1.111,0,2.24-0.214,3.329-0.665l47.221-19.559
	c4.443-1.84,6.553-6.935,4.712-11.377c-1.839-4.443-6.935-6.553-11.377-4.712l-47.221,19.559
	C409.323,161.258,407.213,166.351,409.053,170.794z"/>
<path d="M102.947,297.588c-1.84-4.443-6.935-6.552-11.377-4.713l-47.221,19.559c-4.443,1.84-6.553,6.933-4.712,11.377
	c1.389,3.353,4.631,5.378,8.048,5.378c1.111,0,2.24-0.214,3.329-0.665l47.221-19.559
	C102.677,307.125,104.787,302.031,102.947,297.588z"/>
<path d="M379.299,119.599c2.228,0,4.457-0.85,6.157-2.551l36.142-36.142c3.401-3.401,3.401-8.913,0-12.314
	c-3.401-3.401-8.914-3.401-12.314,0l-36.142,36.142c-3.401,3.401-3.401,8.913,0,12.314
	C374.842,118.749,377.07,119.599,379.299,119.599z"/>
<path d="M126.544,351.333l-36.142,36.142c-3.401,3.401-3.401,8.914,0,12.314c1.7,1.701,3.929,2.551,6.157,2.551
	c2.228,0,4.457-0.85,6.157-2.551l36.142-36.142c3.401-3.401,3.401-8.914,0-12.314C135.458,347.932,129.945,347.932,126.544,351.333z
	"/>
<path d="M331.265,52.484c1.089,0.452,2.219,0.665,3.329,0.665c3.417,0,6.659-2.025,8.048-5.378l7.692-18.568
	c1.84-4.443-0.269-9.536-4.712-11.377c-4.442-1.841-9.536,0.269-11.377,4.712l-7.692,18.568
	C324.712,45.551,326.822,50.644,331.265,52.484z"/>
<path d="M319.396,81.137c1.09,0.452,2.219,0.665,3.33,0.665c3.417,0,6.658-2.024,8.048-5.377l1.896-4.577
	c1.84-4.443-0.268-9.536-4.711-11.378c-4.442-1.84-9.536,0.268-11.377,4.711l-1.896,4.577
	C312.844,74.203,314.953,79.297,319.396,81.137z"/>
<path d="M256,68.528c4.809,0,8.707-3.899,8.707-8.707V8.707C264.707,3.899,260.809,0,256,0c-4.809,0-8.707,3.899-8.707,8.707V59.82
	C247.293,64.629,251.191,68.528,256,68.528z"/>
<path d="M181.226,76.425c1.389,3.353,4.631,5.378,8.048,5.378c1.111,0,2.24-0.214,3.329-0.665c4.443-1.84,6.553-6.935,4.713-11.377
	L177.755,22.54c-1.84-4.443-6.935-6.553-11.377-4.712c-4.443,1.84-6.553,6.935-4.712,11.377L181.226,76.425z"/>
<path d="M126.544,117.049c1.7,1.701,3.929,2.551,6.157,2.551c2.228,0,4.457-0.85,6.157-2.551c3.401-3.401,3.401-8.913,0-12.314
	l-36.142-36.142c-3.401-3.401-8.914-3.401-12.314,0c-3.401,3.401-3.401,8.913,0,12.314L126.544,117.049z"/>
<path d="M385.456,351.333c-3.401-3.401-8.914-3.401-12.314,0c-3.401,3.401-3.401,8.913,0,12.314l36.142,36.142
	c1.7,1.701,3.929,2.551,6.157,2.551s4.457-0.85,6.157-2.551c3.401-3.401,3.401-8.913,0-12.314L385.456,351.333z"/>
<path d="M44.348,155.948l47.221,19.559c1.089,0.452,2.219,0.665,3.329,0.665c3.417,0,6.659-2.025,8.048-5.378
	c1.84-4.443-0.269-9.536-4.712-11.377l-47.221-19.559c-4.443-1.84-9.536,0.269-11.377,4.712
	C37.795,149.013,39.906,154.106,44.348,155.948z"/>
<path d="M467.652,312.435l-47.221-19.559c-4.443-1.84-9.538,0.269-11.377,4.713c-1.84,4.443,0.269,9.536,4.712,11.377l47.221,19.559
	c1.09,0.452,2.219,0.665,3.329,0.665c3.417,0,6.659-2.025,8.048-5.378C474.205,319.37,472.094,314.275,467.652,312.435z"/>
</svg>